<?xml version="1.0" encoding="UTF-8"?>
<!-- Generator: Adobe Illustrator 23.0.4, SVG Export Plug-In . SVG Version: 6.00 Build 0)  -->
<svg xmlns="http://www.w3.org/2000/svg" xmlns:xlink="http://www.w3.org/1999/xlink" x="0px" y="0px" viewBox="0 0 112.55 45" style="enable-background:new 0 0 112.55 45;" xml:space="preserve">
<style type="text/css">
	.st0{fill:none;stroke:#989898;stroke-width:0.5;stroke-linecap:round;stroke-linejoin:round;stroke-miterlimit:10;}
	.st1{fill:none;stroke:#6C63AA;stroke-width:0.5;stroke-linecap:round;stroke-linejoin:round;stroke-miterlimit:10;}
	.st2{fill:#989898;}
	.st3{fill:#0F0D0C;}
	.st4{fill:#343D72;}
	.st5{fill:#DC3239;}
	.st6{fill:#3D98CD;}
	.st7{fill:#FFFFFF;}
	.st8{fill:none;stroke:#FFFFFF;stroke-width:0.5;stroke-linecap:round;stroke-linejoin:round;stroke-miterlimit:10;}
	.st9{fill:#B9DBE5;}
	.st10{fill:#4CB7DD;}
	.st11{fill:#B2B2B2;}
	.st12{fill:none;stroke:#FFFFFF;stroke-miterlimit:10;}
	.st13{fill:#F1F1F1;}
	.st14{fill:none;stroke:#036AFF;stroke-miterlimit:10;}
	.st15{fill:none;stroke:#000000;stroke-width:0.25;}
	.st16{fill:#FFDC00;}
	.st17{fill:none;}
	.st18{fill:#929497;}
	.st19{fill:#E1231B;}
	.st20{stroke:#000000;stroke-width:0.25;}
	.st21{clip-path:url(#SVGID_28_);}
	.st22{clip-path:url(#SVGID_30_);fill:#B9DBE5;}
	.st23{fill:#B8DAE4;}
</style>
<g id="Layer_1">
	<g>
		<g id="g10_10_" transform="matrix(1.25,0,0,-1.25,0,119.294)">
			<g id="g12_10_" transform="scale(0.1)">
				<path id="path14_10_" class="st5" d="M350.04,895.56c-25.74,36.48-68.51,58.22-112.02,58.22c-43.49,0-86.26-21.74-111.96-58.22      l-1.31-1.87h32.42l0.35,0.38c22.09,22.79,50.89,34.82,80.52,34.82c29.64,0,58.44-12.03,80.56-34.82l0.36-0.38h32.4      L350.04,895.56L350.04,895.56"></path>
				<path id="path16_10_" class="st4" d="M108.17,775.88l-0.61-0.61c-9.97-10.14-21.49-15.52-33.36-15.52      c-24.79,0-42.78,18.59-42.78,44.25c0,25.59,17.98,44.21,42.78,44.21c11.87,0,23.39-5.39,33.36-15.55l0.61-0.64l15.94,19.3      l-0.44,0.52c-13.24,15.67-29.15,23.28-48.71,23.28c-19.61,0-37.55-6.61-50.47-18.52C10.44,843.71,3.03,825.53,3.03,804      c0-21.53,7.42-39.75,21.47-52.66c12.93-11.96,30.87-18.52,50.47-18.52c19.56,0,35.47,7.61,48.71,23.26l0.44,0.5L108.17,775.88"></path>
				<path id="path18_10_" class="st4" d="M140.22,735.43h28.16v137.46h-28.16V735.43z"></path>
				<path id="path20_10_" class="st4" d="M278.67,765.33c-7.51-4.58-14.5-6.89-20.78-6.89c-9.09,0-13.21,4.78-13.21,15.5v72.92      h28.68v25.9h-28.68v42.78l-27.6-14.77v-28.01h-23.79v-25.9h23.79v-77.59c0-21.13,12.52-35.57,31.22-35.96      c12.7-0.24,20.34,3.55,25,6.32l0.28,0.2l6.77,26.51L278.67,765.33"></path>
				<path id="path22_10_" class="st4" d="M302,735.43h28.19v137.46H302V735.43z"></path>
				<path id="path24_10_" class="st6" d="M571.4,735.43c2.04,0,3.7,1.79,3.7,3.99v129.76c0,2.11-1.6,3.71-3.7,3.71h-29.12      c-2.19,0-3.98-1.67-3.98-3.71V739.42c0-2.13,1.87-3.99,3.98-3.99H571.4z M556.85,936c13.21,0,23.94-10.76,23.94-23.96      c0-13.22-10.73-23.96-23.94-23.96c-13.22,0-23.98,10.74-23.98,23.96C532.87,925.25,543.63,936,556.85,936"></path>
				<path id="path26_10_" class="st6" d="M632.12,739.15c0-2.12-1.6-3.71-3.7-3.71H599.3c-2.2,0-3.99,1.67-3.99,3.71v183.83      c0,2.04,1.78,3.71,3.99,3.71h29.12c2.1,0,3.7-1.59,3.7-3.71V739.15"></path>
				<path id="path28_10_" class="st6" d="M675.87,735.43c-3.64,0-5.47,0.11-7.08,2.62l-39.79,64.56l41.08,67.1      c1.71,2.65,3.99,3.18,7.37,3.18h27.17c2.73,0,3.17-1.52,3.17-2.36c0-1.27-0.74-2.56-1.99-4.53L665.55,806l43.3-64.32      c1.42-2.08,1.94-3.03,1.94-3.9c0-0.81-0.18-2.35-3.18-2.35H675.87"></path>
				<path id="path30_10_" class="st6" d="M703,803.02c0,40.14,27.5,72.14,66.1,72.14c39.84,0,62.52-34.16,62.52-66.99v-6.78      c0-4.68-2.3-5.33-4.79-5.33h-87.94c1.19-18.41,14.24-31.52,31.46-31.52c11.09,0,20.97,5.82,28.68,15.6      c1.54,1.8,3.2,4.1,5.27,4.1c0.82,0,2.16-0.24,3.26-0.98l18.86-12c1.84-1.06,2.95-2.27,2.95-3.7c0-0.85-0.44-1.9-1.12-3.25      c-10.71-20.27-33.44-31.52-58.43-31.52C728.74,732.79,703,763.97,703,803.02 M739.1,819.59h61.36      c-2.61,17.44-16.45,27.05-30.66,27.05C755.55,846.64,741.71,837.04,739.1,819.59"></path>
				<path id="path32_10_" class="st6" d="M453.15,765.5c-18.25,0-33.09,17.12-33.09,38.15c0,21.05,14.84,38.15,33.09,38.15      c18.26,0,33.09-17.1,33.09-38.15C486.24,782.61,471.41,765.5,453.15,765.5z M456.41,875.16c-15.11,0-28.17-4.8-35.49-12.45      v60.27c0,2.22-1.91,3.71-3.71,3.71h-28.84c-2.12,0-3.71-1.59-3.71-3.71V739.15c0-2.12,1.59-3.71,3.71-3.71h28.82      c2.13,0,3.71,1.6,3.71,3.71l0.02,5.22c7.73-8.53,23.25-11.58,35.21-11.58c35.73,0,67.08,27.38,67.08,71.58      C523.21,848.59,491.87,875.16,456.41,875.16"></path>
				<path id="path34_12_" class="st6" d="M870.87,761.13h2.73c3.23,0,5.82,1.04,5.82,3.65c0,2.3-1.66,3.83-5.33,3.83      c-1.55,0-2.61-0.18-3.23-0.3V761.13z M870.72,746.91h-5.81v25.03c2.28,0.47,5.5,0.77,9.63,0.77c4.72,0,6.85-0.77,8.69-1.83      c1.38-1.07,2.44-3.05,2.44-5.49c0-2.76-2.15-4.9-5.2-5.81v-0.3c2.44-0.91,3.82-2.76,4.58-6.09c0.76-3.83,1.21-5.35,1.85-6.28      h-6.26c-0.76,0.93-1.22,3.23-2,6.13c-0.44,2.74-1.98,3.97-5.18,3.97h-2.75V746.91z M855.3,760.06c0-11.17,8.26-20,19.54-20      c10.98,0,19.07,8.83,19.07,19.84c0,11.13-8.09,20.14-19.23,20.14C863.56,780.04,855.3,771.03,855.3,760.06z M900.33,760.06      c0-14.2-11.14-25.33-25.65-25.33c-14.33,0-25.8,11.13-25.8,25.33c0,13.89,11.47,25.03,25.8,25.03      C889.19,785.09,900.33,773.95,900.33,760.06"></path>
			</g>
		</g>
		<g>
			<g>
				<g>
					<path class="st4" d="M83.23,40.27c0,0.09-0.04,0.17-0.11,0.22c-0.28,0.19-0.58,0-0.58-0.27v-2.76h-2.08v3.46       c0,0.95,0.78,1.73,1.73,1.73c0.41,0,0.81-0.15,1.13-0.41c-0.03,0.26-0.17,0.47-0.41,0.61c-0.22,0.14-0.51,0.21-0.83,0.21       c-0.33,0-0.67-0.08-0.98-0.23c0,0-0.05-0.03-0.12-0.07v1.84c0.46,0.19,0.97,0.29,1.46,0.29c0.78,0,1.48-0.24,1.99-0.68       c0.57-0.49,0.87-1.21,0.87-2.08v-4.67h-2.08V40.27z"></path>
					<path class="st4" d="M79.94,40.91v-5.53h-2.08v5.18c0,1.42,0.94,2.07,1.82,2.07h0c0.26,0,0.52-0.06,0.76-0.17       c0.03-0.02,0.09-0.05,0.09-0.05s-0.05-0.06-0.07-0.08C80.12,41.96,79.94,41.47,79.94,40.91"></path>
					<path class="st4" d="M92.06,39.53v-2.07h-0.74c-0.31-1.63-2.03-2.7-3.75-2.06c-0.96,0.36-1.74,1.5-1.74,2.53v4.59v0.03v0.09       h0.08c0,0,0,0,0,0c0,0,0,0,0,0c0.54-0.02,1.04-0.25,1.41-0.64c0.37-0.39,0.58-0.9,0.58-1.44h0.87v-2.07H87.9v-0.57       c0-0.22,0.12-0.43,0.31-0.54c0.53-0.29,1.07,0.08,1.07,0.59v1.9c0,0.75,0.28,1.45,0.8,1.97c0.49,0.49,1.16,0.78,1.88,0.8       c0,0,0,0,0,0c0,0,0,0,0,0v0h0.09v-0.09v-0.09v-1.9l0,0c-0.39,0-0.69-0.31-0.69-0.69v-0.35H92.06z"></path>
				</g>
			</g>
			<g>
				<path class="st4" d="M26.24,40.01c0,1.64-1.16,2.68-2.55,2.68c-0.73,0-1.44-0.29-1.78-0.87v3.26h-1.08v-7.64h1.08v0.77      c0.34-0.58,1.09-0.88,1.78-0.88C25.07,37.32,26.24,38.37,26.24,40.01z M25.15,40.02c0-0.97-0.7-1.68-1.6-1.68      c-0.86,0-1.64,0.65-1.64,1.68c0,1.04,0.85,1.64,1.64,1.64C24.45,41.66,25.15,40.99,25.15,40.02z"></path>
				<path class="st4" d="M30.49,37.51l-0.19,1.02c-0.29-0.13-0.55-0.18-0.76-0.18c-0.94,0-1.38,0.98-1.38,2.37v1.85h-1.09v-5.14      h1.09v1.16c0.26-0.9,0.78-1.27,1.44-1.27C29.97,37.32,30.33,37.41,30.49,37.51z"></path>
				<path class="st4" d="M30.5,39.98c0-1.63,1.23-2.67,2.7-2.67s2.71,1.04,2.71,2.67c0,1.63-1.24,2.7-2.71,2.7      S30.5,41.61,30.5,39.98z M34.82,39.98c0-0.99-0.75-1.65-1.63-1.65s-1.62,0.66-1.62,1.65c0,1,0.74,1.67,1.62,1.67      S34.82,40.99,34.82,39.98z"></path>
				<path class="st4" d="M41.26,37.43l-2.15,5.14h-1.02l-2.15-5.14h1.16l1.5,3.74l1.5-3.74H41.26z"></path>
				<path class="st4" d="M41.56,35.56c0-0.4,0.34-0.69,0.74-0.69c0.41,0,0.74,0.3,0.74,0.69c0,0.4-0.33,0.69-0.74,0.69      C41.9,36.25,41.56,35.95,41.56,35.56z M41.75,37.43h1.08v5.14h-1.08V37.43z"></path>
				<path class="st4" d="M49.1,34.64v7.93h-1.08V41.8c-0.34,0.58-1.08,0.88-1.77,0.88c-1.4,0-2.55-1.06-2.55-2.69      c0-1.64,1.16-2.68,2.54-2.68c0.73,0,1.44,0.29,1.78,0.87v-3.55H49.1z M48.01,39.98c0-1.04-0.85-1.64-1.64-1.64      c-0.88,0-1.6,0.67-1.6,1.64c0,0.96,0.72,1.67,1.6,1.67C47.24,41.66,48.01,41.02,48.01,39.98z"></path>
				<path class="st4" d="M55.15,40.44h-4.1c0.14,0.84,0.76,1.24,1.6,1.24c0.59,0,1.16-0.25,1.44-0.73l0.86,0.43      c-0.45,0.86-1.38,1.3-2.36,1.3c-1.49,0-2.65-1.07-2.65-2.7c0-1.63,1.19-2.67,2.65-2.67s2.58,1.04,2.58,2.65      C55.17,40.12,55.16,40.27,55.15,40.44z M54.09,39.57c-0.1-0.8-0.69-1.24-1.49-1.24s-1.39,0.4-1.54,1.24H54.09z"></path>
				<path class="st4" d="M61.07,34.64v7.93H60V41.8c-0.34,0.58-1.08,0.88-1.77,0.88c-1.4,0-2.55-1.06-2.55-2.69      c0-1.64,1.16-2.68,2.54-2.68c0.73,0,1.44,0.29,1.78,0.87v-3.55H61.07z M59.98,39.98c0-1.04-0.85-1.64-1.64-1.64      c-0.88,0-1.6,0.67-1.6,1.64c0,0.96,0.72,1.67,1.6,1.67C59.21,41.66,59.98,41.02,59.98,39.98z"></path>
				<path class="st4" d="M69.96,40c0,1.63-1.17,2.69-2.55,2.69c-0.69,0-1.44-0.3-1.78-0.88v0.77h-1.08v-7.93h1.08v3.55      c0.34-0.58,1.06-0.87,1.78-0.87C68.81,37.32,69.96,38.35,69.96,40z M68.87,39.98c0-0.97-0.7-1.64-1.6-1.64      c-0.79,0-1.64,0.61-1.64,1.64c0,1.04,0.78,1.67,1.64,1.67C68.17,41.66,68.87,40.94,68.87,39.98z"></path>
				<path class="st4" d="M75.3,37.43l-3.19,7.64h-1.15l1.1-2.72l-2.05-4.92h1.17l1.48,3.58l1.48-3.58H75.3z"></path>
			</g>
		</g>
	</g>
</g>
<g id="Layer_2">
</g>
</svg>
